<svg xmlns="http://www.w3.org/2000/svg" viewBox="-2065 -2000 702.722 307.175" width="811.306" height="307.175"><g fill="none" stroke-miterlimit="10" stroke-linecap="round"><path class="path" d="M-5980.28-2343.62c-7 111.33 26.21 224.77 92.15 314.74 20.08 27.4 44.08 53.4 75.26 66.87 103.78 44.83 229.02-65.89 331-17.12 39.62 18.95 65.47 58.74 80.86 99.87s22.3 84.94 35.86 126.71c24.25 74.68 70.18 142.18 130.75 192.15" clip-path="url(#SVGID_4_)" transform="matrix(.75977 -.46027 .63979 .5466 3820.446 -3341.2)" stroke="#f01c3f" stroke-width="8.585"/><path class="path" d="M-5943.26-2307.37c-23.16 83.74 24.48 169.27 72.3 241.8 10.8 16.39 22.02 33.03 37.7 44.84 16.65 12.55 37.32 18.79 57.98 21.57 103.26 13.9 214.22-51.72 308.25-6.83 33.02 15.77 58.78 43.52 80.59 72.91 33.55 51.432 44.3 91.566 53.07 135.73 0 0 7.28 74.78 77.62 171.84" clip-path="url(#SVGID_4_)" transform="matrix(.75977 -.46027 .63979 .5466 3820.446 -3349.2)" stroke="#f071a5" stroke-width="8.585"/><path class="path" d="M-5912.63-2296.63a1005.75 1005.75 0 0040.28 134.55c9.95 26.38 21.51 53.08 41.63 72.83 36.97 36.29 94.63 41.35 145.98 34.53 51.35-6.82 101.75-23.33 153.55-22.18 90.33 2.02 176.46 63.54 207.66 148.34 21.19 57.58 19.03 123.57 50.65 176.15" clip-path="url(#SVGID_4_)" transform="matrix(.75977 -.46027 .63979 .5466 3820.446 -3341.2)" stroke="#075397" stroke-width="8.585"/><path class="path" d="M-5888.89-2329.08a1005.75 1005.75 0 0040.28 134.55c9.95 26.38 21.51 53.08 41.63 72.83 36.97 36.29 94.63 41.35 145.98 34.53 51.35-6.82 101.75-23.33 153.55-22.18 90.33 2.02 176.46 63.54 207.66 148.34 21.19 57.58 19.03 123.57 50.65 176.15" clip-path="url(#SVGID_4_)" transform="matrix(.75977 -.46027 .63979 .5466 3820.446 -3341.2)" stroke="#19953a" stroke-width="8.455"/><path class="path" d="M-2207.015-1838.22c65.91 64.075 163.718 110.795 271.38 129.62 32.785 5.736 67.654 8.9 99.962 1.91 107.53-23.262 131.847-141.425 240.53-161.706 42.227-7.88 87.324 1.972 125.331 17.37 38.007 15.398 71.287 36.163 108.313 52.754 51.151 21.42 64.333 20.17 97.446 13.64" stroke="#e1dd19" stroke-width="8.585"/></g></svg>
